<svg xmlns="http://www.w3.org/2000/svg" viewBox="0 0 512 512" width="200" height="200">
    <g fill="#3F51B5">
        <path d="M157.633 261.793c0 11.421-9.252 20.688-20.683 20.688s-20.683-9.268-20.683-20.688c0-11.421 9.252-20.688 20.683-20.688s20.683 9.268 20.683 20.688zM285.215 306.844c0 11.421-9.252 20.688-20.683 20.688s-20.683-9.268-20.683-20.688c0-11.421 9.252-20.688 20.683-20.688s20.683 9.268 20.683 20.688zM412.797 261.793c0 11.421-9.252 20.688-20.683 20.688s-20.683-9.268-20.683-20.688c0-11.421 9.252-20.688 20.683-20.688s20.683 9.268 20.683 20.688z"/>
    </g>
    <g fill="#1565C0">
        <path d="M157.633 358.059c0 11.421-9.252 20.688-20.683 20.688s-20.683-9.268-20.683-20.688c0-11.421 9.252-20.688 20.683-20.688s20.683 9.268 20.683 20.688zM285.215 403.109c0 11.421-9.252 20.688-20.683 20.688s-20.683-9.268-20.683-20.688c0-11.421 9.252-20.688 20.683-20.688s20.683 9.268 20.683 20.688zM412.797 358.059c0 11.421-9.252 20.688-20.683 20.688s-20.683-9.268-20.683-20.688c0-11.421 9.252-20.688 20.683-20.688s20.683 9.268 20.683 20.688z"/>
    </g>
    <g fill="#64B5F6">
        <path d="M157.633 454.324c0 11.421-9.252 20.688-20.683 20.688s-20.683-9.268-20.683-20.688c0-11.421 9.252-20.688 20.683-20.688s20.683 9.268 20.683 20.688zM285.215 499.375c0 11.421-9.252 20.688-20.683 20.688s-20.683-9.268-20.683-20.688c0-11.421 9.252-20.688 20.683-20.688s20.683 9.268 20.683 20.688zM412.797 454.324c0 11.421-9.252 20.688-20.683 20.688s-20.683-9.268-20.683-20.688c0-11.421 9.252-20.688 20.683-20.688s20.683 9.268 20.683 20.688z"/>
    </g>
    <path fill="#90CAF9" d="M481.891 199.105v37.344c0 22.379-18.129 40.508-40.508 40.508h-37.344c-9.367 0-17.945 5.047-22.605 13.242l-22.453 40.469c-2.742 4.937-7.895 7.859-13.313 7.859-5.418 0-10.57-2.922-13.312-7.859l-22.453-40.469c-4.66-8.195-13.238-13.242-22.605-13.242h-37.344c-22.379 0-40.508-18.129-40.508-40.508v-37.344c0-22.379 18.129-40.508 40.508-40.508h37.344c9.367 0 17.945-5.047 22.605-13.242l22.453-40.469c2.742-4.937 7.895-7.859 13.313-7.859 5.418 0 10.57 2.922 13.312 7.859l22.453 40.469c4.66 8.195 13.238 13.242 22.605 13.242h37.344c22.379 0 40.508 18.129 40.508 40.508z"/>
</svg>
