<svg xmlns="http://www.w3.org/2000/svg" viewBox="0 0 512 512" width="200" height="200">
    <path fill="#4CAF50" d="M256 104.588c-26.915 0-48.824 21.869-48.824 48.775v208.82c0 26.907 21.909 48.775 48.824 48.775s48.824-21.869 48.824-48.775v-208.82c0-26.906-21.909-48.775-48.824-48.775z"/>
    <path fill="#388E3C" d="M256 116.748c-16.201 0-29.412 13.202-29.412 29.441v208.82c0 16.239 13.211 29.441 29.412 29.441s29.412-13.202 29.412-29.441v-208.82c0-16.239-13.211-29.441-29.412-29.441z"/>
    <g fill="#FFC107">
        <path d="M404.367 241.97c-.019-.234-.055-.464-.079-.697-4.798-48.454-43.345-87.059-91.647-91.38-.235-.024-.475-.06-.71-.078-1.12-11.101-9.846-19.605-20.042-20.418-8.68-.668-16.437 3.694-19.492 10.498l-42.05 115.818c-1.681 4.618.278 9.762 4.896 11.443 4.618 1.681 9.762-.278 11.443-4.896l20.914-57.472c1.228-3.376 4.209-5.717 7.719-5.972 3.522-.274 6.856 1.783 8.61 5.007 6.24 11.514 16.715 18.903 29.075 19.635 12.359.735 23.713-5.29 29.124-16.257l19.29-52.983c1.174-3.223 4.151-5.445 7.544-5.701 3.386-.262 6.602 1.789 8.362 5.032l17.567 32.503c1.276 2.362 3.584 4.19 6.001 5.031 2.431.85 5.035.658 7.299-.461 3.315-1.486 5.521-4.668 5.521-8.277.01-.231.011-.464.003-.696l-3.859-85.014c-.284-6.259-5.493-11.183-11.752-10.9-6.255.287-11.184 5.504-10.898 11.755l4.299 94.417c.254 5.591 4.839 9.87 10.071 9.87.142 0 .284-.002.425-.006 5.58-.206 9.914-4.88 9.708-10.458l-3.857-84.617c-.275-6.041-5.198-10.792-11.238-10.517-6.042.275-10.797 5.215-10.52 11.257l4.71 103.044c.281 6.259 5.502 11.171 11.761 10.89 6.244-.281 11.169-5.503 10.89-11.761l-4.121-90.127c-.127-2.786-2.392-5.025-5.178-5.025-.143 0-.286.006-.428.019-2.902.201-5.176 2.743-4.975 5.645l4.122 90.131c.289 6.367 5.633 11.319 11.991 11.03 6.376-.29 11.319-5.641 11.029-11.992l-4.71-103.049c-.289-6.267-5.51-11.168-11.77-10.879-6.255.289-11.166 5.512-10.877 11.767l3.856 84.613c.242 5.299 4.635 9.387 9.933 9.387.143 0 .286-.006.429-.019 5.637-.391 9.954-5.367 9.563-11.005l-17.605-32.635c-.184-.341-.39-.667-.602-.977-1.853-2.455-5.048-3.465-8.008-2.729-3.47 1.067-5.848 4.511-5.641 8.158.059.831.33 1.64.783 2.358l18.842 33.694c.319.57.707 1.092 1.146 1.553l-18.872 51.858c-.29 6.321 4.325 11.686 10.647 11.987 6.338.3 11.705-4.313 12.005-10.647l2.334-64.202c.133-3.686 3.153-6.594 6.839-6.462 3.685.132 6.595 3.152 6.462 6.839l-2.386 65.636c-.31 6.646 4.636 12.325 11.266 12.643 6.655.324 12.325-4.637 12.642-11.267l1.911-52.56c.11-3.088 2.553-5.69 5.634-6.007 3.086-.111 5.692 2.555 6.007 5.635l3.99 87.532c.359 7.896-5.724 14.599-13.603 14.996-.094.003-.189.004-.283.004-.13 0-.261-.006-.392-.019-7.906-.38-14.432-6.614-14.011-14.522l-3.832-84.203c-.135-2.965-2.673-5.382-5.638-5.382-.131 0-.262.005-.393.015-2.956.257-5.29 2.79-5.029 5.746l3.831 84.191c.409 9.004 8.244 16.077 17.252 15.663 9.005-.411 16.069-8.251 15.663-17.256l-3.99-87.532c-.315-6.926 5.119-12.625 12.044-12.94 6.925-.313 12.622 5.121 12.94 12.045l2.386 52.553c.339 7.435 6.312 13.369 13.749 13.707 7.44.342 13.369-6.307 13.707-13.747l-2.334-64.215c-.303-8.364-7.288-15.086-15.654-15.384-8.376-.304-15.088 7.285-15.384 15.654l-18.873 51.855c-.439.479-.827.999-1.147 1.569l-18.871-33.697c-.44-.788-.776-1.604-.981-2.44-1.66-7.501-8.415-12.893-16.051-12.893-7.51 0-13.763 5.171-15.476 12.146l-20.915 57.474c-1.682 4.618.277 9.762 4.896 11.443 4.617 1.682 9.762-.277 11.443-4.896l42.05-115.816c1.642-4.514 6.003-7.319 10.652-7.319 3.6 0 6.946 1.652 9.176 4.484 3.888 4.465 9.876 7.038 16.133 7.177 6.256.139 12.292-2.687 16.325-7.601 1.682-2.026 3.057-4.337 3.984-6.794 1.709-5.071.67-10.584-2.739-14.445l-42.05-68.242c-2.436-3.947-6.771-6.369-11.306-6.369-4.532 0-8.873 2.422-11.316 6.394l-42.053 68.246c-3.71 6.004-9.613 9.428-15.969 9.428-4.03 0-8.064-1.428-11.216-4.111-4.732-3.756-10.837-5.438-16.999-4.609-6.163.828-11.724 4.271-15.336 9.738l-42.05 68.244c-2.545 4.139-7.145 6.557-11.898 6.557-4.756 0-9.359-2.419-11.897-6.558l-42.053-68.242c-4.609-7.466-11.145-13.516-19.08-17.583-7.935-4.067-16.877-5.991-26.027-5.344-9.136.652-17.692 3.908-24.648 9.804-6.94 5.898-11.628 14.159-12.726 23.339-1.098 9.171 1.017 18.543 5.929 26.479l42.053 68.242c2.599 4.194 2.953 9.435.919 13.963-2.034 4.528-5.981 7.896-10.843 9.27-1.466.406-2.917.623-4.367.651-4.096.058-7.786-2.666-9.103-6.659l-42.05-115.818c-1.678-4.618-.275-9.762 4.344-11.442 4.613-1.682 9.758.275 11.443 4.896l20.915 57.472c1.229 3.376 4.209 5.717 7.719 5.972 3.522.274 6.856-1.783 8.61-5.007 6.24-11.514 16.715-18.903 29.075-19.635 12.359-.735 23.713 5.29 29.124 16.257l19.29 52.983c1.174 3.223 4.151 5.445 7.544 5.701 3.386.262 6.602-1.789 8.362-5.032l17.567-32.503c1.276-2.362 3.584-4.19 6.001-5.031 2.431-.85 5.035-.658 7.299.461 3.315 1.486 5.521 4.668 5.521 8.277.01.231.011.464.003.696l-3.859 85.014c-.284 6.259-5.493 11.183-11.752 10.9-6.255-.287-11.184-5.504-10.898-11.755l4.299-94.417c.254-5.591 4.839-9.87 10.071-9.87.142 0 .284.002.425.006 5.58.206 9.914 4.88 9.708 10.458l-3.857 84.617c-.275 6.041-5.198 10.792-11.238 10.517-6.042-.275-10.797-5.215-10.52-11.257l4.71-103.044c.281-6.259 5.502-11.171 11.761-10.89 6.244.281 11.169 5.503 10.89 11.761l-4.121 90.127c-.127 2.786-2.392 5.025-5.178 5.025-.143 0-.286-.006-.428-.019-2.902-.201-5.176-2.743-4.975-5.645l4.122-90.131c.289-6.367 5.633-11.319 11.991-11.03 6.376.29 11.319 5.641 11.029 11.992l-4.71 103.049c-.289 6.267-5.51 11.168-11.77 10.879-6.255-.289-11.166-5.512-10.877-11.767l3.856-84.613c.242-5.299 4.635-9.387 9.933-9.387.143 0 .286.006.429.019 5.637.391 9.954 5.367 9.563 11.005l-17.605 32.635c-.184.341-.39.667-.602.977-1.853 2.455-5.048 3.465-8.008 2.729-3.47-1.067-5.848-4.511-5.641-8.158.059-.831.33-1.64.783-2.358l18.842-33.694c.319-.57.707-1.092 1.146-1.553l-18.872-51.858c-.29-6.321 4.325-11.686 10.647-11.987 6.338-.3 11.705 4.313 12.005 10.647l2.334 64.202c.133 3.686 3.153 6.594 6.839 6.462 3.685-.132 6.595-3.152 6.462-6.839l-2.386-65.636c-.31-6.646 4.636-12.325 11.266-12.643 6.655-.324 12.325 4.637 12.642 11.267l1.911 52.56c.11 3.088 2.553 5.69 5.634 6.007 3.086.111 5.692-2.555 6.007-5.635l3.99-87.532c.359-7.896-5.724-14.599-13.603-14.996-.094-.003-.189-.004-.283-.004-.13 0-.261.006-.392.019-7.906.38-14.432 6.614-14.011 14.522l-3.832 84.203c-.135 2.965-2.673 5.382-5.638 5.382-.131 0-.262-.005-.393-.015-2.956-.257-5.29-2.79-5.029-5.746l3.831-84.191c.409-9.004 8.244-16.077 17.252-15.663 9.005.411 16.069 8.251 15.663 17.256l-3.99 87.532c-.315 6.926 5.119 12.625 12.044 12.94 6.925.313 12.622-5.121 12.94-12.045l2.386-52.553c.339-7.435 6.312-13.369 13.749-13.707 7.44-.342 13.369 6.307 13.707 13.747l-2.334 64.215c-.303 8.364-7.288 15.086-15.654 15.384-8.376.304-15.088-7.285-15.384-15.654l-18.873-51.855c-.439-.479-.827-.999-1.147-1.569l-18.871 33.697c-.44.788-.776 1.604-.981 2.44-1.66 7.501-8.415 12.893-16.051 12.893-7.51 0-13.763-5.171-15.476-12.146l-20.915-57.474c-1.682-4.618-.275-9.762 4.896-11.443 4.617-1.682 9.762.277 11.443 4.896l42.05 115.816c1.642 4.514 6.003 7.319 10.652 7.319 3.6 0 6.946-1.652 9.176-4.484 3.888-4.465 9.876-7.038 16.133-7.177 6.256-.139 12.292 2.687 16.325 7.601 1.682 2.026 3.057 4.337 3.984 6.794 1.709 5.071.67 10.584-2.739 14.445l-42.05 68.242c-2.436 3.947-6.771 6.369-11.306 6.369-4.532 0-8.873-2.422-11.316-6.394l-42.053-68.246c-3.71-6.004-9.613-9.428-15.969-9.428-4.03 0-8.064 1.428-11.216 4.111-4.732 3.756-10.837 5.438-16.999 4.609-6.163-.828-11.724-4.271-15.336-9.738l-42.05-68.244c-2.545-4.139-7.145-6.557-11.898-6.557-4.756 0-9.359 2.419-11.897 6.558l-42.053 68.242c-4.609 7.466-11.145 13.516-19.08 17.583-7.935 4.067-16.877 5.991-26.027 5.344-9.136-.652-17.692-3.908-24.648-9.804-6.94-5.898-11.628-14.159-12.726-23.339-1.098-9.171 1.017-18.543 5.929-26.479l42.053-68.242c2.599-4.194 2.953-9.435.919-13.963-2.034-4.528-5.981-7.896-10.843-9.27-1.466-.406-2.917-.623-4.367-.651-4.096-.058-7.786 2.666-9.103 6.659l-42.05 115.818c-1.678 4.618-.275 9.762 4.344 11.442 4.613 1.682 9.758-.275 11.443-4.896l20.915-57.472c1.229-3.376 4.209-5.717 7.719-5.972 3.522-.274 6.856 1.783 8.61 5.007 6.24 11.514 16.715 18.903 29.075 19.635 12.359.735 23.713-5.29 29.124-16.257l">
        </g>
</svg>
