<?xml version="1.0" encoding="UTF-8"?><svg id="Layer_1" xmlns="http://www.w3.org/2000/svg" viewBox="0 0 1747.11 384.25"><defs><style>.cls-1{fill:#1faaf3;}.cls-2{fill:#f66630;}.cls-3{fill:#58595b;}.cls-4{fill:#f6b90c;}.cls-5{fill:#36c63d;}.cls-6{fill:#3459d0;}.cls-7{fill:#afa91c;}</style></defs><path class="cls-5" d="M72.29,324.81c-2.81,1.7-7.58,3.7-10.78,3.99-8.59.78-39.36-17.59-48.54-22.88-5.22-3.01-8.97-.88-11.43-8.68-3.17-10.03-.44-15.6-.41-24.31.22-56.76-.56-113.53.27-170.28,1-3.28,3.13-6.09,6-7.96,4.99-3.24,30.46-16.27,35.4-17.28,7.27-1.49,22.18,3.5,27.25,8.56,5.9,5.89,4.71,22.28,6.3,23.48l102.75,54.93c12.64,3.41,17.44-8.9,32.13-4.26,2.52.8,19.54,10.29,20.62,11.9,4.79,7.05.85,19.8,5.7,24.18,17.59,8.25,34.72,17.46,51.94,26.35,13.12,6.78,28.11,14.66,42.8,20.99,8.78,3.78,3.52,6.31,17.17,3.74-12.02,8.5,5.23,13.34,12.38,17.06-.5,4.46,1.12,9.63-.8,13.94s-13.5,9.38-18.1,9.02c-7.13-.56-10.86-5.15-19.82-5.89-.51-.04-1.07.1-1.55,0-.21-.73-.81-1.4-1.55-1.55-.95-.19-2.16.2-3.09,0-9.78-2.05-20.9-11-29.93-15.77-10.24-5.41-75.87-40.56-80.65-40.05-5.25.56-7.22,4.19-15.52,3-2.05-.29-15.86-5.83-17.81-6.98-7.92-4.68-2.63-15.88-5.75-19.43-16.04-7.53-30.85-17.74-46.5-25.94-11.95-6.25-24.46-10.71-36.14-16.52-11.78-5.86-23.26-18.9-37.14-14.76,1.79-2.25,6.06-6.35,4.45-9.12l-15.29-6.38-.03,17.7,7.77.9c-7.71,10.08-3.1,14.18-3.02,25.52.27,34.13-.36,68.27-.08,102.4.67,3.65,16.37,12.09,20.13,11.62-3.38,5.51,1.17,7.58,2.17,10.81.53,1.73-.85,3.91-.41,5.23.96,2.95,13.79,4.49,9.08,16.53l5.42-.02-2.31,4.66c-.4.19-1.07-.17-1.55,0-.65.23-1.18.95-1.55,1.55h0Z"/><path class="cls-6" d="M326.24,110.86c.87.23,2.38-.42,3.61-.03,1.84.58.04,3.77,2.56,3.13l1.56-17.04c-5.23,2.63-17.85,4.32-12.38,12.39-9.53-.34-25.66,11.46-34.86,15.49-2.51,9.83,2,52.24-4.48,57.54s-9.47-2.44-12.16-3.68c-9.38-4.36-21.34-4.44-22.86-17.36-1.22-10.34-1.02-49.55,2.33-58.2,2.53-6.54,8.72-9.67,15.07-11.27l16.69-9.61-63.48-34.91c.6-.29,5.63-10.88,5.88-11.95,1.78-7.71-1.52-17.35,1.87-25.27,15.74,8.43,32.04,15.9,47.76,24.26,23.77,12.64,31.92,22.27,59.76,26.98,4.87.82,29.37,14.67,32.68,18.45s3.44,5.33,3.88,10.07c1.66,18.11,1.98,59.88-.04,77.62-.68,5.93-2.7,10.37-9.37,7.82-6.35-6.11-22.68-9.6-26.92-16.5-7.32-11.9,3.3-35.89-7.08-47.94h-.02Z"/><path class="cls-1" d="M225.59,10.09c-3.38,7.92-.07,17.55-1.87,25.27-.25,1.06-5.28,11.65-5.88,11.95-5.58,2.7-14.69,4.09-20.83,3.02-2.41-.41-4.18-2.73-6.4-3.05-3.64-.53-46.47,19.98-47.08,22.53-.58,2.41,2.07,3.19,3.56,4.16,6.29,4.09,31.71,17.25,38.22,19.2,5.18,1.56,14.53-2.31,22.16-.59,1.58.36,11.99,6.75,13.02,7.88,8.64,9.56,6.95,30-4.26,37.44-5.46,3.63-17.69,5.62-23.72,3.69-1.25-.4-3.25-4.23-6.3-5.98-3.87-2.22-8.36-2.8-12.31-4.79-27.94-14.1-54.73-30.54-83.02-44.01-6.34-4.84-5.45-20.8-3-27.8,1.75-5.02,5.35-6.21,9.71-8.89C127.37,31.8,163.76,18.81,194.31,1.25c9.69-3.53,19.18,1.09,27.78,5.43,2.02,1.02,3.03,3.15,3.5,3.4h0Z"/><path class="cls-2" d="M202.36,247.29c.51.04,1.05-.07,1.55,0,1.9,4.03,6.69,4.26,9.9,6.43,1.22.83,6.5,4.36,6.8,4.68.97,1.07-.25,4.59,1.82,6.78,1.56,1.64,7.13,2.43,9.85,4.09,4.74,2.9,9.23,8.33,13.01,10.24,3.19,1.6,12.92,2.67,14.04,3.78.61.61,4.56,14.96,4.7,16.36.99,9.39-.5,20.43-1.23,29.12-.33,3.9,2.54,15.87.13,18.66-7.43,3.87-19.49,5.27-17.35,16.02-8.25,1.39-16.23,5.77-23.58,9.75-3.43,1.85-4.84,4.6-6.17,5.43-2.07,1.31-6.41.25-8.82,5.11-8.01,1.02-11.71-.19-18.58-3.1l6.19-1.53c-6.27-.34-9.28-6.04-15.11-8.9-12.12-5.95-25.34-2.8-26.74-19.73-2.08-25.19,1.61-53.26.12-78.77,4.01-6.66,8.15-7.13,14.32-10.44.9-.48.98-2.33,2.29-2.99,3.67-1.87,14.23-1.97,14.3-7.85.46-.16,1.07.14,1.55,0,3.72-1.09,4.37-3.03,4.65-3.1.46-.12,1.03.08,1.55,0,2.61-.43,8-.24,10.84,0h-.02ZM211.65,295.35c.63-5.37-1.68-2.19-4.32-2.02-6.25.4-12.45.45-18.68.68-4.88,13.17.99,27.07-.28,40.61l19.55,5.69,6.84-3.1c1.88-.61,4.73-2.95,6.2-3.1.11,0,.61,1.8,1.52,1.57.24-.95-.27-2.6.03-3.12.08-.13,1.02.06,1.55,0,2.02-.24,4.17.21,6.2,0v-3.09c.43-.19,1.12.2,1.54,0,2.15-1,2.9-3,3.09-3.1.42-.2,1.13.21,1.55,0,.88-.43,1.27-1.4,1.55-1.55.41-.22,1.16.22,1.55,0,2.38-1.37,3.09-2.1,4.65-3.1.36-.24,1.23.25,1.55,0,1.58-1.24,3.49-2.07,4.64-3.9.58-2.15-.8-1.8-1.54-2.31-.35-.23-1.14.22-1.55,0-.32-.17-.69-1.15-1.55-1.55-.43-.2-1.14.2-1.55,0-.85-4.01-1.43-3.24-4-4.65-4.81-2.65-7.33-3.93-13.03-6.2-.45-.18-1.12.19-1.55,0-.9-5.17-7.57-7.14-12.38-7.75-.51-.07-1.04.02-1.55,0h-.02Z"/><path class="cls-4" d="M330.89,213.18c-2.1-6.61-14.26-7.63-18.56-10.13-1.98-1.15-6.74-7.86-10.87-9.25v-34.88c1.71-.12,3.37-.12,5.05.36,8.22,2.37,21.48,11.42,29.53,15.4,11.45,5.66,20.7,10.67,31.72,16.62,4.37,2.36,20.84,7.87,23.13,9.84,1.05.9,3.13,7.97,3.35,9.84,1.48,12.19,1.74,46.79.26,58.84-.43,3.48-3.75,2.45-4.55,4.77-1.64,4.78,1.19,17.62-2.53,22.32-1.58,2.01-4.97,1.22-6.98,2.35-2.32,1.3-2.31,4.31-4.3,5.37-3.03,1.61-10.52,4.55-14.76,6.52-14.27,6.62-25.27-4.74-38.01-9.85-.55-5.56-.25-11.23-.25-16.81,8.97,1.44,12.32,7.18,22.45,6.27,5.4-.49,18.3-7.73,19.32-13.29.87-4.72,1.3-16,1.64-21.68.17-2.9,1.29-6.35-3.16-5.43-.11-3.48-1.43-5.07-1.55-6.2-.52-4.8-.07-16.13-3.48-19.78s-20.3-8.83-25.94-11.22c-.44-.18-1.11.18-1.55,0l.02.02Z"/><path class="cls-2" d="M203.91,247.29c10.87,1.35,10.22,5.82,17.84,10.82,20.57,13.49,44.34,23.78,65.9,36.34,4.09,2.38,18.04,8.02,18.57,12.48-1.53,9.74,3.92,22.39-5.55,28.72-24.31,11.84-47.57,26.2-71.7,38.29-5.69,2.85-16.23,9.05-21.97,9.78,2.41-4.86,6.76-3.8,8.82-5.11,1.32-.84,2.75-3.58,6.17-5.43,7.35-3.97,15.33-8.35,23.58-9.75-2.13-10.75,9.92-12.14,17.35-16.02,2.4-2.78-.46-14.75-.13-18.66.73-8.69,2.21-19.73,1.23-29.12-.15-1.39-4.11-15.76-4.7-16.36-1.1-1.1-10.85-2.17-14.04-3.78-3.77-1.9-8.26-7.34-13.01-10.24-2.73-1.67-8.3-2.45-9.85-4.09-2.07-2.19-.85-5.71-1.82-6.78-.3-.32-5.58-3.85-6.8-4.68-3.2-2.17-8-2.4-9.9-6.43h0Z"/><path class="cls-2" d="M69.2,282.94c4.46-6.45,14.45-7.42,20.68-12.25l.32-26.59c-7.09-2.29-19.38-5.68-21.85-13.78-1.64-5.38-1.47-21.1,2.31-25.37,3.78-4.26,24.06-10.78,30.23-10.44,3.58.2,27.13,11.24,28.77,13.59,1.82,2.61,2.82,8.67,3.1,11.99,1.85,22.11-1.23,47.09-.4,69.5-2.09,2.55-4.24,6.84-6.82,8.67-9.23,6.54-28.4,13.55-39.29,18.79.14-.99-.21-2.21,0-3.1,2.13-9.11,11.61-7.66,17.44-9.32,1.08-.31,2.84-4.03,5.53-5.67,5.33-3.23,12.67-4.16,15.72-5.97,8.58-5.08,3.71-44.4,3.14-54.26-.35-5.97.66-29.83-3.31-33.12-.69-.57-6.11-.21-8.78-1.25-1.5-.59-1.73-2.8-2.36-3.06-7.66-3.08-15.17-4.8-23.58-3.75-2.74.35-2.14,2.5-3.47,3.07-2.2.95-11.42,4.27-12.29,5.2-2.31,2.46-2.75,21.29-1.67,24.88,2.22,7.37,15.39,4.63,20.31,6.03,7.91,2.25,2.62,27.27,4.26,34.4-.51,1.88-7.5,1.68-9.69,2.66-4.53,2.04-10.44,7.01-16.73,9.14-.46.16-1.08-.15-1.55,0l-.02.02Z"/><path class="cls-4" d="M330.89,213.18c-5.84-2.42-29.34-13.05-31.37-17.42-.86-7.28-4.8-38.62,4.33-40.02,3.96-.61,22.68,11.21,28.03,13.83,5.68,2.78,11.81,4.54,17.42,7.37,14.98,7.57,29.48,16.95,44.63,24.3,2.26,3.93,3.24,8.16,3.61,12.68,1.43,16.94,1.88,56.28-.47,72.53-.63,4.38-2.08,10.12-5.89,12.71-20.13,7.88-29.85,23.32-53.62,13.57-16.86-6.92-19.08-15.46-20.61-32.85.94.2,2.15-.19,3.09,0,.22.72.81,1.4,1.55,1.55.48.1,1.04-.04,1.55,0v3.1c0,5.58-.3,11.25.25,16.81,12.74,5.12,23.74,16.47,38.01,9.85,4.25-1.97,11.74-4.91,14.76-6.52,1.99-1.05,1.97-4.06,4.3-5.37,2.01-1.13,5.38-.34,6.98-2.35,3.72-4.7.89-17.55,2.53-22.32.8-2.32,4.11-1.29,4.55-4.77,1.48-12.04,1.23-46.64-.26-58.84-.22-1.87-2.3-8.93-3.35-9.84-2.29-1.97-18.76-7.47-23.13-9.84-11.02-5.96-20.27-10.97-31.72-16.62-8.05-3.98-21.3-13.03-29.53-15.4-1.68-.49-3.33-.48-5.05-.36v34.88c4.12,1.39,8.88,8.1,10.87,9.25,4.3,2.5,16.46,3.52,18.56,10.13v-.02Z"/><path class="cls-5" d="M361.85,244.19c.12,1.13,1.44,2.73,1.55,6.2.18,5.91-1,9.02-1.55,13.95-7.16-3.72-24.4-8.55-12.38-17.06.5-.09,1.06.11,1.55,0,2.7-.61,5.53-2.47,7.74-3.1.83-.23,2.12.16,3.09,0h0Z"/><path class="cls-5" d="M44.42,146.52l-7.77-.9.03-17.7,15.29,6.38c1.61,2.78-2.66,6.87-4.45,9.12-1.13,1.43-2.6,2.44-3.09,3.1h0Z"/><path class="cls-2" d="M183.78,250.39c-.07,5.87-10.63,5.98-14.3,7.85-1.31.66-1.39,2.51-2.29,2.99-6.17,3.31-10.29,3.77-14.32,10.44,1.48,25.51-2.21,53.58-.12,78.77,1.4,16.93,14.62,13.79,26.74,19.73,5.83,2.86,8.84,8.56,15.11,8.9l-6.19,1.53c-6.86-2.9-34.05-16.25-36.36-21.73l-.11-88.42c2.55-8.36,23.76-17.35,31.82-20.07h0Z"/><path class="cls-6" d="M321.6,109.31c-5.47-8.07,7.15-9.76,12.38-12.39l-1.56,17.04c-2.52.65-.72-2.55-2.56-3.13-1.23-.39-2.75.27-3.61.03-1.31-.35-4.14-1.53-4.65-1.55h0Z"/><path class="cls-5" d="M69.2,282.94c.47-.15,1.09.16,1.55,0l-6.2,7.03c.56,10.73,11.9,16.05,12.4,25.54l9.28-1.56c-.21.89.14,2.11,0,3.1-3.69,1.78-7.09,4.42-10.84,6.2l2.31-4.66-5.42.02c4.71-12.04-8.11-13.58-9.08-16.53-.43-1.32.95-3.48.41-5.23-.99-3.23-5.55-5.3-2.17-10.81,1-.12,5.52-2.39,7.74-3.1h0Z"/><path class="cls-4" d="M332.43,213.18c5.64,2.39,22.4,7.44,25.94,11.22s2.95,14.97,3.48,19.78c-.98.16-2.27-.23-3.09,0v-1.55c-.71-3.53,1.15-13.03-.25-15.26s-17.55-7.57-20.98-9.22c-2.28-1.11-4.06-2.61-5.09-4.97h0Z"/><path class="cls-2" d="M202.36,247.29c-2.84-.24-8.23-.43-10.84,0,2.7-3.97,8.14-3.97,10.84,0Z"/><path class="cls-5" d="M358.76,242.64v1.55c-2.21.63-5.04,2.49-7.74,3.1,1.34-3.1,4.61-4.25,7.74-4.65Z"/><path class="cls-4" d="M185.33,250.39l4.65-3.1c-.27.07-.93,2.01-4.65,3.1Z"/><path class="cls-4" d="M363.4,250.39c4.45-.92,3.33,2.53,3.16,5.43-.34,5.67-.78,16.95-1.64,21.68-1.02,5.56-13.92,12.8-19.32,13.29-10.13.91-13.49-4.84-22.45-6.27v-3.1c8.96.74,12.68,5.33,19.82,5.89,4.59.36,16.18-4.7,18.1-9.02s.3-9.46.8-13.94c.56-4.94,1.73-8.05,1.55-13.95h-.02Z"/><path class="cls-7" d="M321.6,281.4c-.73-.15-1.32-.83-1.55-1.55.74.15,1.34.82,1.55,1.55Z"/><path class="cls-2" d="M214.75,337.21l-6.84,3.1-19.55-5.69c1.28-13.55-4.6-27.44.28-40.61,6.23-.23,12.43-.28,18.68-.68,2.65-.17,4.95-3.35,4.32,2.02-8.65-.45-14.11,3.36-21.68,1.55v34.88c3,4.04,8.35,1.51,12.8,2.69,5.28,1.39,3.23,5.56,11.98,2.75h0Z"/><path class="cls-2" d="M227.14,303.1c5.7,2.26,8.22,3.54,13.03,6.2,2.57,1.42,3.15.65,4,4.65-6.08-2.94-12.84-5.05-17.03-10.85Z"/><path class="cls-2" d="M213.2,295.35c4.82.61,11.5,2.59,12.38,7.75-3.86-1.68-9.56-4.6-12.38-7.75Z"/><path class="cls-2" d="M230.23,329.46v3.09c-2.02.21-4.17-.23-6.2,0,1.38-2.75,4.21-2.26,6.2-3.1h0Z"/><path class="cls-2" d="M245.72,321.71l3.09-6.2c.74.51,2.12.16,1.54,2.31-1.14,1.83-3.05,2.66-4.64,3.9Z"/><path class="cls-4" d="M239.52,324.81l4.65-3.1c-1.55,1-2.26,1.73-4.65,3.1Z"/><path class="cls-2" d="M222.49,332.56c-.3.51.21,2.17-.03,3.12-.9.23-1.41-1.58-1.52-1.57l1.55-1.55Z"/><path class="cls-4" d="M236.43,326.36l1.55-1.55c-.28.15-.67,1.12-1.55,1.55Z"/><path class="cls-4" d="M247.27,315.5l-1.55-1.55c.86.39,1.24,1.38,1.55,1.55Z"/><path class="cls-4" d="M231.78,329.46l3.09-3.1c-.2.09-.95,2.1-3.09,3.1Z"/><path class="cls-2" d="M70.75,282.94c6.29-2.13,12.2-7.1,16.73-9.14,2.19-.99,9.17-.78,9.69-2.66-1.64-7.13,3.64-32.15-4.26-34.4-4.92-1.39-18.08,1.34-20.31-6.03-1.09-3.59-.64-22.42,1.67-24.88.87-.93,10.1-4.26,12.29-5.2,1.33-.57.73-2.72,3.47-3.07,8.41-1.06,15.93.67,23.58,3.75.63.26.87,2.47,2.36,3.06,2.67,1.05,8.1.68,8.78,1.25,3.97,3.29,2.96,27.15,3.31,33.12.58,9.85,5.45,49.17-3.14,54.26-3.05,1.81-10.39,2.75-15.72,5.97-2.7,1.63-4.45,5.36-5.53,5.67-5.84,1.65-15.31.2-17.44,9.32l-9.28,1.56c-.5-9.49-11.84-14.82-12.4-25.54l6.2-7.03h0Z"/><path class="cls-3" d="M637.78,28.3l-34.22,129.18h-32.33l-21.49-82.87c-.54-2.16-.99-4.46-1.35-6.89s-.6-4.97-.72-7.61h-.36c-.24,2.94-.56,5.62-.95,8.02-.39,2.4-.86,4.56-1.4,6.49l-22.03,82.87h-33.68l-34.04-129.18h31.87l18.24,86.03c.42,1.86.77,4.01,1.04,6.44s.5,5.21.68,8.33h.54c.12-2.34.41-4.77.86-7.3.45-2.52,1.04-5.13,1.76-7.84l23.48-85.67h31.24l21.22,86.75c.36,1.56.72,3.51,1.08,5.85.36,2.34.69,5.02.99,8.02h.36c.12-2.4.35-4.79.68-7.16.33-2.37.74-4.79,1.22-7.25l17.88-86.21h29.44Z"/><path class="cls-3" d="M731.87,157.47h-77.65V28.3h74.67v23.69h-45.51v28.74h42.35v23.6h-42.35v29.55h48.49v23.6Z"/><path class="cls-3" d="M752.64,157.47V28.3h47.13c14.45,0,25.55,2.73,33.32,8.2,7.76,5.47,11.65,13.18,11.65,23.15,0,6.91-2.08,12.96-6.23,18.15-4.15,5.19-9.45,8.81-15.89,10.85v.36c8.31,1.08,14.93,4.37,19.87,9.86,4.93,5.49,7.4,12.18,7.4,20.04,0,11.83-4.24,21.21-12.73,28.15-8.49,6.94-20.08,10.4-34.76,10.4h-49.75ZM781.8,49.74v31.53h12.82c6.02,0,10.76-1.44,14.22-4.32,3.46-2.88,5.19-6.85,5.19-11.89s-1.78-8.93-5.33-11.49c-3.55-2.55-8.88-3.83-15.98-3.83h-10.93ZM781.8,102.88v33.15h15.8c6.74,0,12.02-1.56,15.85-4.68,3.82-3.12,5.73-7.39,5.73-12.79,0-4.86-1.88-8.69-5.64-11.49-3.76-2.79-9.02-4.19-15.76-4.19h-15.98Z"/><path class="cls-3" d="M865.77,148.91l10.93-18.92c4.81,2.76,9.06,4.77,12.73,6.04,3.67,1.26,8.25,1.89,13.72,1.89,7.28,0,12.64-1.71,16.07-5.13,3.43-3.42,5.15-7.39,5.15-11.89,0-6.25-2.51-10.93-7.54-14.05-5.03-3.12-11.93-4.68-20.72-4.68h-10.56v-21.8h9.66c8.43,0,14.75-1.4,18.96-4.19,4.21-2.79,6.32-7.46,6.32-14.01,0-4.74-1.32-8.32-3.97-10.72-2.65-2.4-6.5-3.6-11.56-3.6-3.61,0-7.62.65-12.01,1.94-4.4,1.29-9.06,3.35-14,6.17l-10.29-18.83c6.68-3.9,13.21-6.71,19.59-8.42,6.38-1.71,13.45-2.57,21.22-2.57,11.92,0,21.58,2.97,28.98,8.92,7.4,5.95,11.11,13.66,11.11,23.15,0,7.93-1.84,14.53-5.51,19.82-3.67,5.29-9.21,9.25-16.61,11.89v.45c8.01,1.5,14.34,5,19.01,10.49,4.66,5.49,7,12.06,7,19.68,0,11.41-4.24,20.79-12.73,28.15-8.49,7.36-19.99,11.03-34.49,11.03-7.58,0-14.58-.86-20.99-2.57-6.41-1.71-12.9-4.46-19.46-8.24Z"/><path class="cls-3" d="M986.08,120.78c1.85,18.93,14.45,27.95,35.05,27.95s33.33-8.76,33.33-25.81c0-12.35-5.98-20.25-30.18-29-24.99-9.01-33.77-17.54-33.77-32.23,0-18.06,13.86-34.84,43.89-34.84s42.51,16.8,42.44,34.9h-13.28c-1.92-15.13-9.98-24.26-30.54-24.26s-28.67,11.15-28.67,22.76c0,9.58,4.41,15.53,26.53,23.36,29.07,10.25,37.69,21.63,37.69,37.5,0,19.98-14.09,38.2-49.1,38.2-31.24,0-46.37-16.36-47-38.54h13.61Z"/><path class="cls-3" d="M1180.26,100.59c0,25.52-15.56,58.73-52.8,58.73-22.99,0-36.74-13.66-36.74-37.06,0-25.95,17.02-59.46,52.64-59.46,22.59,0,36.9,14.12,36.9,37.79ZM1103.76,122.13c0,16.45,8.82,26.84,25.19,26.84,26.21,0,38.12-27.32,38.12-48.24,0-17.04-8.08-27.59-25.09-27.59-25.27,0-38.23,27.29-38.23,48.99Z"/><path class="cls-3" d="M1193.11,157.47l31.24-135.72h12.68l-31.24,135.72h-12.68Z"/><path class="cls-3" d="M1317.97,132.61c-2.01,8.33-3.84,17.43-5.25,24.87h-12.42c.2-3.05,1.88-11.73,3.19-17.19-6.51,10.8-18.22,19.04-34.7,19.04-18.29,0-30.64-9.11-24.64-34.66l14.18-60.02h12.48l-13.71,59.12c-3.05,12.82-2.9,25.17,15.46,25.17,17.1,0,31.62-11.68,38.09-39.84l10.36-44.44h12.68l-15.72,67.96Z"/><path class="cls-3" d="M1351.63,64.64h17.41l6.36-27.47h12.65l-6.32,27.47h22.43l-2.49,10.13h-22.43l-13.64,59.75c-2.21,9.53-1.78,13.72,7.26,13.72,2.87,0,7.3-.18,10.48-.86l-2.56,9.8c-4.23,1.38-8.56,1.54-12.56,1.54-13.95,0-19.65-5.54-16.18-20.66l14.51-63.28h-17.41l2.49-10.13Z"/><path class="cls-3" d="M1424.6,64.64h12.68l-21.4,92.83h-12.68l21.4-92.83ZM1434.44,21.75h12.68l-4.27,18.93h-12.68l4.27-18.93Z"/><path class="cls-3" d="M1539.65,100.59c0,25.52-15.56,58.73-52.8,58.73-22.99,0-36.74-13.66-36.74-37.06,0-25.95,17.02-59.46,52.64-59.46,22.59,0,36.9,14.12,36.9,37.79ZM1463.15,122.13c0,16.45,8.82,26.84,25.19,26.84,26.21,0,38.12-27.32,38.12-48.24,0-17.04-8.08-27.59-25.09-27.59-25.27,0-38.23,27.29-38.23,48.99Z"/><path class="cls-3" d="M1568.44,88.22c1.81-8.12,3.48-15.92,5.05-23.58h12.42c-.37,3.05-2.72,14.87-3.49,17.42,6.13-9.5,16.17-19.26,35.25-19.26s31.3,9.92,25.18,35.88l-13.41,58.8h-12.65l13.24-58.08c3.59-15.38-.17-25.83-17.07-25.83-20.97,0-32.67,18.44-37.19,38.1l-10.6,45.81h-12.68l15.95-69.25Z"/><path class="cls-3" d="M1669.46,129.91c1.28,10.26,7.94,19.37,25.92,19.37,14.75,0,22.91-6.85,22.91-16.75s-7.07-14.19-22.07-19.4c-21.01-7.14-27.45-13.98-27.45-24.43,0-13.56,11.21-25.91,34.62-25.91,25.46,0,34.22,13.62,33.92,26.36h-12.92c-.87-7.12-4.36-16.5-22.58-16.5-12.05,0-20.02,5.81-20.02,14.87,0,7.12,5.92,10.64,20.89,15.85,20.33,7.01,29.1,14.5,29.1,27.47,0,17.42-14.42,28.47-38.6,28.47s-36.36-12.8-36.64-29.41h12.91Z"/><path class="cls-3" d="M512.43,227.26c0-9.3.1-18.76.33-24.03h-.28c-2.24,8.12-10.69,29.62-16.69,45.38h-6.22c-4.53-12.82-13.28-36.93-15.63-45.48h-.23c.4,5.79.58,16.91.58,25.5v19.98h-6.53v-50.1h10.34c5.93,15.55,13.19,35.61,14.98,41.98h.12c1.23-4.82,9.8-26.84,15.94-41.98h10.05v50.1h-6.77v-21.35Z"/><path class="cls-3" d="M558.87,240.65c0,3.32.3,6.91.53,7.96h-6.29c-.3-.81-.53-2.55-.62-4.78-1.33,2.43-4.37,5.64-11.76,5.64-8.98,0-12.81-5.6-12.81-11.16,0-8.15,6.68-11.88,18-11.88h6.5v-3.11c0-3.22-1.07-7.15-8.2-7.15-6.36,0-7.44,3.03-8.13,5.88h-6.36c.5-5.03,3.75-10.85,14.7-10.82,9.31.03,14.46,3.66,14.46,11.96v17.45ZM552.45,230.81h-6.16c-7.59,0-11.66,2.01-11.66,7.16,0,3.8,2.72,6.56,7.41,6.56,9.17,0,10.41-5.92,10.41-12.55v-1.17Z"/><path class="cls-3" d="M564.81,212.1h6.59v-10.77h6.57v10.77h8.41v5.14h-8.41v21.39c0,3.55.9,5.37,4.35,5.37.91,0,2.28-.05,3.32-.3v4.75c-1.62.58-3.88.67-5.69.67-5.92,0-8.55-2.94-8.55-9.01v-22.87h-6.59v-5.14Z"/><path class="cls-3" d="M597.07,231.5c.05,7.43,3.95,12.7,10.41,12.7,6.02,0,7.97-2.97,9.19-5.65h6.62c-1.5,4.68-5.58,10.92-16.02,10.92-11.97,0-16.86-9.33-16.86-18.73,0-10.86,5.7-19.51,17.28-19.51,12.28,0,16.31,9.45,16.31,17.24,0,1.11,0,2.04-.1,3.03h-26.84ZM617.34,227.06c-.07-6.01-3.23-10.83-9.74-10.83s-9.64,4.47-10.31,10.83h20.05Z"/><path class="cls-3" d="M639.88,212.1v37.71c0,10.1-2.42,13.88-10.68,13.88-.47,0-1.95-.07-2.58-.14v-5.35c.49.05,1.04.05,1.43.05,4.59,0,5.25-2.22,5.25-7.34v-38.8h6.57ZM633.31,203.63v-7.88h6.57v7.88h-6.57Z"/><path class="cls-3" d="M678.5,233.59l-5.62,15.03h-6.9l18.61-50.1h8.53l19.41,50.1h-7.38l-5.8-15.03h-20.85ZM697.57,227.89c-4.98-13.17-7.72-20.16-8.85-23.98h-.08c-1.28,4.25-4.34,12.72-8.35,23.98h17.28Z"/><path class="cls-3" d="M719.75,222.02c0-5.1-.05-7.98-.07-9.92h6.45c.1,1.02.2,3.89.2,7.45,1.99-4.94,6.53-8.13,12.83-8.32v6.29c-7.81.22-12.83,4.13-12.83,13.36v17.73h-6.57v-26.59Z"/><path class="cls-3" d="M752.68,195.75v21.74c1.94-3.21,5.41-6.25,11.89-6.25,6.1,0,12.83,3.2,12.83,14.07v23.31h-6.55v-22.25c0-6.21-2.74-9.66-8.28-9.66-6.85,0-9.88,4.34-9.88,11.95v19.96h-6.57v-52.86h6.57Z"/><path class="cls-3" d="M810.8,238.17c1.09,3.99,4.17,6.34,9.34,6.34,5.59,0,7.79-2.31,7.79-5.63s-1.75-5-9.02-6.69c-10.89-2.54-13.16-5.73-13.16-10.69s3.96-10.27,13.75-10.27,13.85,5.45,14.34,10.54h-6.36c-.54-2.36-2.41-5.65-8.26-5.65-5.34,0-6.92,2.46-6.92,4.85,0,2.73,1.56,4.08,8.55,5.68,11.55,2.63,13.86,6.32,13.86,11.75,0,6.4-5.29,11.07-14.77,11.07s-14.7-4.78-15.67-11.31h6.54Z"/><path class="cls-3" d="M842.72,248.61v-10.64h6.89v10.64h-6.89Z"/><path class="cls-3" d="M865.68,244.1v18.86h-6.55v-41.96c0-2.98,0-6.07-.08-8.91h6.39c.15,1.22.23,3.43.23,5.74,2.06-3.68,5.93-6.6,12.45-6.6,8.81,0,15.21,7.08,15.21,18.18,0,13.04-7.34,20.06-16.56,20.06-6.16,0-9.37-2.48-11.09-5.38ZM886.56,229.67c0-7.74-3.67-13.04-10.18-13.04-7.89,0-11.01,4.78-11.01,13.66s2.56,13.87,10.51,13.87c6.96,0,10.68-5.5,10.68-14.49Z"/><path class="cls-3" d="M900.1,248.61v-10.64h6.89v10.64h-6.89Z"/><path class="cls-3" d="M475.36,279.81v80.29h-10.92v-80.29h10.92Z"/><path class="cls-3" d="M493.76,316.32c0-5.08,0-10.21-.12-14.75h10.08c.28,1.72.44,7.88.4,9.61,2.4-5.03,7.29-11,18.9-11s20.06,6.71,20.06,22.27v37.64h-10.37v-36.34c0-8.84-3.54-14.8-12.71-14.8-11.32,0-15.89,8.4-15.89,20.16v30.98h-10.37v-43.77Z"/><path class="cls-3" d="M562.56,360.1v-50.27h-9.68v-8.24h9.68v-7.01c0-10.76,4.23-20.35,17.49-20.35,2.2,0,5.18.31,6.64.77v8.56c-1.44-.34-3.65-.53-5.26-.53-6.19,0-8.5,3.62-8.5,12.19v6.37h12.03v8.24h-12.03v50.27h-10.37Z"/><path class="cls-3" d="M645.37,330.72c0,16.86-9.91,30.76-28.27,30.76-17.2,0-27.61-12.97-27.61-30.56s10.19-30.73,28.29-30.73c16.67,0,27.6,12.17,27.6,30.53ZM600.17,330.84c0,12.83,6.57,22.2,17.36,22.2s17.16-8.88,17.16-22.15-6.14-22.24-17.4-22.24-17.13,8.84-17.13,22.2Z"/><path class="cls-3" d="M658.89,317.48c0-8.18-.08-12.79-.12-15.9h10.16c.16,1.64.32,6.23.32,11.94,3.14-7.92,10.3-13.03,20.23-13.33v10.07c-12.32.36-20.23,6.62-20.23,21.42v28.41h-10.37v-42.62Z"/><path class="cls-3" d="M699.38,316.67c0-5.04,0-10.35-.12-15.09h10c.16,1.76.44,6.07.4,9,2.74-5.24,7.98-10.39,17.47-10.39,8.5,0,14.34,4.2,16.62,10.48,3.21-5.55,8.88-10.48,19.13-10.48s18.93,5.61,18.93,21.45v38.46h-10.2v-37.23c0-6.79-2.51-13.95-11.88-13.95s-14.01,7.2-14.01,17.58v33.6h-10.16v-36.91c0-7.53-2.19-14.23-11.61-14.23s-14.28,7.6-14.28,18.75v32.39h-10.28v-43.43Z"/><path class="cls-3" d="M843.57,347.34c0,5.32.47,11.08.83,12.76h-9.92c-.47-1.3-.83-4.09-.98-7.66-2.1,3.9-6.89,9.04-18.54,9.04-14.16,0-20.2-8.98-20.2-17.88,0-13.06,10.53-19.04,28.37-19.04h10.24v-4.99c0-5.16-1.69-11.46-12.93-11.46-10.03,0-11.72,4.85-12.82,9.42h-10.03c.79-8.06,5.91-17.38,23.17-17.34,14.67.04,22.8,5.87,22.8,19.17v27.97ZM833.45,331.57h-9.72c-11.97,0-18.38,3.22-18.38,11.47,0,6.08,4.28,10.52,11.69,10.52,14.46,0,16.41-9.49,16.41-20.12v-1.87Z"/><path class="cls-3" d="M908.75,342.19c-2.55,10.07-9.54,19.29-24.82,19.29-16.52,0-26.77-11.59-26.77-30.33,0-16.55,9.61-30.96,27.52-30.96s23.29,12.02,24.06,19.57h-10.27c-1.48-5.96-5.31-11.12-13.99-11.12-10.62,0-16.64,8.87-16.64,22.15s5.83,22.28,16.26,22.28c7.51,0,11.88-3.9,14.33-10.88h10.32Z"/><path class="cls-3" d="M922.22,275.37h10.37v12.62h-10.37v-12.62ZM922.22,301.58h10.37v58.52h-10.37v-58.52Z"/><path class="cls-3" d="M960.65,301.58v60.43c0,16.19-3.82,22.24-16.84,22.24-.74,0-3.07-.12-4.07-.23v-8.57c.78.07,1.64.07,2.26.07,7.23,0,8.28-3.55,8.28-11.76v-62.19h10.37ZM950.28,288v-12.62h10.37v12.62h-10.37Z"/><path class="cls-3" d="M982.79,343.35c1.72,6.4,6.58,10.16,14.72,10.16,8.82,0,12.29-3.71,12.29-9.03s-2.76-8.01-14.22-10.72c-17.16-4.07-20.74-9.18-20.74-17.12s6.24-16.45,21.68-16.45,21.83,8.74,22.61,16.89h-10.03c-.86-3.78-3.8-9.05-13.03-9.05-8.42,0-10.91,3.94-10.91,7.78,0,4.37,2.46,6.53,13.47,9.1,18.21,4.21,21.85,10.13,21.85,18.83,0,10.26-8.34,17.74-23.29,17.74s-23.17-7.66-24.71-18.13h10.32Z"/><path class="cls-3" d="M1043.3,329.51c5.07-5.78,18.25-19.3,26.39-27.94h12.36l-22.61,22.8,25.19,35.72h-12.12l-20.18-29.25-9.03,8.5v20.75h-10.37v-84.72h10.37v54.14Z"/><path class="cls-3" d="M1138.87,347.34c0,5.32.47,11.08.83,12.76h-9.92c-.47-1.3-.83-4.09-.98-7.66-2.1,3.9-6.89,9.04-18.54,9.04-14.16,0-20.2-8.98-20.2-17.88,0-13.06,10.53-19.04,28.37-19.04h10.24v-4.99c0-5.16-1.69-11.46-12.93-11.46-10.03,0-11.72,4.85-12.82,9.42h-10.03c.79-8.06,5.91-17.38,23.17-17.34,14.67.04,22.8,5.87,22.8,19.17v27.97ZM1128.75,331.57h-9.72c-11.97,0-18.38,3.22-18.38,11.47,0,6.08,4.28,10.52,11.69,10.52,14.46,0,16.41-9.49,16.41-20.12v-1.87Z"/><path class="cls-3" d="M1179.03,301.58h10.38v-17.27h10.37v17.27h13.25v8.24h-13.25v34.28c0,5.69,1.42,8.6,6.85,8.6,1.44,0,3.59-.07,5.23-.49v7.61c-2.56.93-6.11,1.08-8.98,1.08-9.34,0-13.48-4.71-13.48-14.44v-36.65h-10.38v-8.24Z"/><path class="cls-3" d="M1229.89,332.68c.08,11.9,6.22,20.36,16.42,20.36,9.5,0,12.57-4.77,14.49-9.05h10.44c-2.36,7.49-8.8,17.5-25.26,17.5-18.88,0-26.58-14.95-26.58-30.02,0-17.4,8.99-31.27,27.25-31.27,19.37,0,25.72,15.14,25.72,27.63,0,1.78,0,3.27-.16,4.85h-42.32ZM1261.85,325.55c-.12-9.63-5.09-17.36-15.35-17.36s-15.2,7.16-16.26,17.36h31.6Z"/><path class="cls-3" d="M1296.33,275.37v34.84c3.06-5.14,8.53-10.02,18.74-10.02,9.62,0,20.22,5.14,20.22,22.55v37.35h-10.32v-35.67c0-9.95-4.32-15.48-13.06-15.48-10.8,0-15.58,6.96-15.58,19.15v31.99h-10.37v-84.72h10.37Z"/><path class="cls-3" d="M1353.02,316.32c0-5.08,0-10.21-.12-14.75h10.08c.28,1.72.44,7.88.41,9.61,2.39-5.03,7.29-11,18.9-11s20.06,6.71,20.06,22.27v37.64h-10.37v-36.34c0-8.84-3.54-14.8-12.71-14.8-11.32,0-15.88,8.4-15.88,20.16v30.98h-10.37v-43.77Z"/><path class="cls-3" d="M1471.6,330.72c0,16.86-9.91,30.76-28.27,30.76-17.2,0-27.61-12.97-27.61-30.56s10.19-30.73,28.29-30.73c16.67,0,27.6,12.17,27.6,30.53ZM1426.4,330.84c0,12.83,6.57,22.2,17.36,22.2s17.16-8.88,17.16-22.15-6.14-22.24-17.4-22.24-17.13,8.84-17.13,22.2Z"/><path class="cls-3" d="M1485.12,360.1v-84.72h10.37v84.72h-10.37Z"/><path class="cls-3" d="M1564.79,330.72c0,16.86-9.91,30.76-28.27,30.76-17.2,0-27.61-12.97-27.61-30.56s10.19-30.73,28.29-30.73c16.67,0,27.6,12.17,27.6,30.53ZM1519.58,330.84c0,12.83,6.57,22.2,17.36,22.2s17.16-8.88,17.16-22.15-6.14-22.24-17.4-22.24-17.13,8.84-17.13,22.2Z"/><path class="cls-3" d="M1628.48,354.83c0,18.75-7.95,29.43-27.55,29.43-18.2,0-23.8-9.94-24.89-17.89h10.57c1.75,6.41,7.04,9.81,14.76,9.81,13.63,0,17.01-8.43,17.01-21.9v-4.73c-3.2,6.56-8.71,10.27-18.77,10.27-14.78,0-24.85-11.74-24.85-28.89,0-19.1,11.41-30.73,25.93-30.73,11.45,0,16.32,5.25,17.69,9.13.12-2.65.36-6.53.48-7.75h9.8c-.04,3.39-.19,11.28-.19,16.9v36.35ZM1585.54,330.48c0,12.34,6.58,20.72,16.4,20.72,12.96,0,16.74-8.48,16.74-21.48s-3.56-20.96-16.39-20.96c-11.1,0-16.75,9.05-16.75,21.72Z"/><path class="cls-3" d="M1646.15,275.37h10.37v12.62h-10.37v-12.62ZM1646.15,301.58h10.37v58.52h-10.37v-58.52Z"/><path class="cls-3" d="M1684.57,301.58v60.43c0,16.19-3.82,22.24-16.84,22.24-.74,0-3.07-.12-4.07-.23v-8.57c.78.07,1.64.07,2.26.07,7.23,0,8.28-3.55,8.28-11.76v-62.19h10.37ZM1674.21,288v-12.62h10.37v12.62h-10.37Z"/><path class="cls-3" d="M1746.29,347.34c0,5.32.47,11.08.83,12.76h-9.92c-.47-1.3-.83-4.09-.98-7.66-2.1,3.9-6.89,9.04-18.54,9.04-14.16,0-20.2-8.98-20.2-17.88,0-13.06,10.53-19.04,28.37-19.04h10.24v-4.99c0-5.16-1.69-11.46-12.93-11.46-10.03,0-11.72,4.85-12.82,9.42h-10.03c.79-8.06,5.91-17.38,23.17-17.34,14.67.04,22.8,5.87,22.8,19.17v27.97ZM1736.16,331.57h-9.72c-11.97,0-18.38,3.22-18.38,11.47,0,6.08,4.28,10.52,11.69,10.52,14.46,0,16.41-9.49,16.41-20.12v-1.87Z"/></svg>
