<svg id="Layer_1" xmlns="http://www.w3.org/2000/svg" version="1.1" viewBox="0 0 1701.65 390.25"><defs><style>.st1{fill:#f66630}.st2{fill:#58595b}.st3{fill:#f6b90c}.st4{fill:#36c63d}.st5{fill:#3459d0}</style></defs><path class="st4" d="M72.29 324.81c-2.81 1.7-7.58 3.7-10.78 3.99-8.59.78-39.36-17.59-48.54-22.88-5.22-3.01-8.97-.88-11.43-8.68-3.17-10.03-.44-15.6-.41-24.31.22-56.76-.56-113.53.27-170.28 1-3.28 3.13-6.09 6-7.96 4.99-3.24 30.46-16.27 35.4-17.28 7.27-1.49 22.18 3.5 27.25 8.56 5.9 5.89 4.71 22.28 6.3 23.48l102.75 54.93c12.64 3.41 17.44-8.9 32.13-4.26 2.52.8 19.54 10.29 20.62 11.9 4.79 7.05.85 19.8 5.7 24.18 17.59 8.25 34.72 17.46 51.94 26.35 13.12 6.78 28.11 14.66 42.8 20.99 8.78 3.78 3.52 6.31 17.17 3.74-12.02 8.5 5.23 13.34 12.38 17.06-.5 4.46 1.12 9.63-.8 13.94s-13.5 9.38-18.1 9.02c-7.13-.56-10.86-5.15-19.82-5.89-.51-.04-1.07.1-1.55 0-.21-.73-.81-1.4-1.55-1.55-.95-.19-2.16.2-3.09 0-9.78-2.05-20.9-11-29.93-15.77-10.24-5.41-75.87-40.56-80.65-40.05-5.25.56-7.22 4.19-15.52 3-2.05-.29-15.86-5.83-17.81-6.98-7.92-4.68-2.63-15.88-5.75-19.43-16.04-7.53-30.85-17.74-46.5-25.94-11.95-6.25-24.46-10.71-36.14-16.52-11.78-5.86-23.26-18.9-37.14-14.76 1.79-2.25 6.06-6.35 4.45-9.12l-15.29-6.38-.03 17.7 7.77.9c-7.71 10.08-3.1 14.18-3.02 25.52.27 34.13-.36 68.27-.08 102.4.67 3.65 16.37 12.09 20.13 11.62-3.38 5.51 1.17 7.58 2.17 10.81.53 1.73-.85 3.91-.41 5.23.96 2.95 13.79 4.49 9.08 16.53l5.42-.02-2.31 4.66c-.4.19-1.07-.17-1.55 0-.65.23-1.18.95-1.55 1.55Z"/><path class="st5" d="M326.24 110.86c.87.23 2.38-.42 3.61-.03 1.84.58.04 3.77 2.56 3.13l1.56-17.04c-5.23 2.63-17.85 4.32-12.38 12.39-9.53-.34-25.66 11.46-34.86 15.49-2.51 9.83 2 52.24-4.48 57.54s-9.47-2.44-12.16-3.68c-9.38-4.36-21.34-4.44-22.86-17.36-1.22-10.34-1.02-49.55 2.33-58.2 2.53-6.54 8.72-9.67 15.07-11.27l16.69-9.61-63.48-34.91c.6-.29 5.63-10.88 5.88-11.95 1.78-7.71-1.52-17.35 1.87-25.27 15.74 8.43 32.04 15.9 47.76 24.26 23.77 12.64 31.92 22.27 59.76 26.98 4.87.82 29.37 14.67 32.68 18.45s3.44 5.33 3.88 10.07c1.66 18.11 1.98 59.88-.04 77.62-.68 5.93-2.7 10.37-9.37 7.82-6.35-6.11-22.68-9.6-26.92-16.5-7.32-11.9 3.3-35.89-7.08-47.94h-.02Z"/><path d="M225.59 10.09c-3.38 7.92-.07 17.55-1.87 25.27-.25 1.06-5.28 11.65-5.88 11.95-5.58 2.7-14.69 4.09-20.83 3.02-2.41-.41-4.18-2.73-6.4-3.05-3.64-.53-46.47 19.98-47.08 22.53-.58 2.41 2.07 3.19 3.56 4.16 6.29 4.09 31.71 17.25 38.22 19.2 5.18 1.56 14.53-2.31 22.16-.59 1.58.36 11.99 6.75 13.02 7.88 8.64 9.56 6.95 30-4.26 37.44-5.46 3.63-17.69 5.62-23.72 3.69-1.25-.4-3.25-4.23-6.3-5.98-3.87-2.22-8.36-2.8-12.31-4.79-27.94-14.1-54.73-30.54-83.02-44.01-6.34-4.84-5.45-20.8-3-27.8 1.75-5.02 5.35-6.21 9.71-8.89 29.78-18.32 66.17-31.31 96.72-48.87 9.69-3.53 19.18 1.09 27.78 5.43 2.02 1.02 3.03 3.15 3.5 3.4Z" style="fill:#1faaf3"/><path class="st1" d="M202.36 247.29c.51.04 1.05-.07 1.55 0 1.9 4.03 6.69 4.26 9.9 6.43 1.22.83 6.5 4.36 6.8 4.68.97 1.07-.25 4.59 1.82 6.78 1.56 1.64 7.13 2.43 9.85 4.09 4.74 2.9 9.23 8.33 13.01 10.24 3.19 1.6 12.92 2.67 14.04 3.78.61.61 4.56 14.96 4.7 16.36.99 9.39-.5 20.43-1.23 29.12-.33 3.9 2.54 15.87.13 18.66-7.43 3.87-19.49 5.27-17.35 16.02-8.25 1.39-16.23 5.77-23.58 9.75-3.43 1.85-4.84 4.6-6.17 5.43-2.07 1.31-6.41.25-8.82 5.11-8.01 1.02-11.71-.19-18.58-3.1l6.19-1.53c-6.27-.34-9.28-6.04-15.11-8.9-12.12-5.95-25.34-2.8-26.74-19.73-2.08-25.19 1.61-53.26.12-78.77 4.01-6.66 8.15-7.13 14.32-10.44.9-.48.98-2.33 2.29-2.99 3.67-1.87 14.23-1.97 14.3-7.85.46-.16 1.07.14 1.55 0 3.72-1.09 4.37-3.03 4.65-3.1.46-.12 1.03.08 1.55 0 2.61-.43 8-.24 10.84 0h-.02Zm9.29 48.06c.63-5.37-1.68-2.19-4.32-2.02-6.25.4-12.45.45-18.68.68-4.88 13.17.99 27.07-.28 40.61l19.55 5.69 6.84-3.1c1.88-.61 4.73-2.95 6.2-3.1.11 0 .61 1.8 1.52 1.57.24-.95-.27-2.6.03-3.12.08-.13 1.02.06 1.55 0 2.02-.24 4.17.21 6.2 0v-3.09c.43-.19 1.12.2 1.54 0 2.15-1 2.9-3 3.09-3.1.42-.2 1.13.21 1.55 0 .88-.43 1.27-1.4 1.55-1.55.41-.22 1.16.22 1.55 0 2.38-1.37 3.09-2.1 4.65-3.1.36-.24 1.23.25 1.55 0 1.58-1.24 3.49-2.07 4.64-3.9.58-2.15-.8-1.8-1.54-2.31-.35-.23-1.14.22-1.55 0-.32-.17-.69-1.15-1.55-1.55-.43-.2-1.14.2-1.55 0-.85-4.01-1.43-3.24-4-4.65-4.81-2.65-7.33-3.93-13.03-6.2-.45-.18-1.12.19-1.55 0-.9-5.17-7.57-7.14-12.38-7.75-.51-.07-1.04.02-1.55 0h-.02Z"/><path class="st3" d="M330.89 213.18c-2.1-6.61-14.26-7.63-18.56-10.13-1.98-1.15-6.74-7.86-10.87-9.25v-34.88c1.71-.12 3.37-.12 5.05.36 8.22 2.37 21.48 11.42 29.53 15.4 11.45 5.66 20.7 10.67 31.72 16.62 4.37 2.36 20.84 7.87 23.13 9.84 1.05.9 3.13 7.97 3.35 9.84 1.48 12.19 1.74 46.79.26 58.84-.43 3.48-3.75 2.45-4.55 4.77-1.64 4.78 1.19 17.62-2.53 22.32-1.58 2.01-4.97 1.22-6.98 2.35-2.32 1.3-2.31 4.31-4.3 5.37-3.03 1.61-10.52 4.55-14.76 6.52-14.27 6.62-25.27-4.74-38.01-9.85-.55-5.56-.25-11.23-.25-16.81 8.97 1.44 12.32 7.18 22.45 6.27 5.4-.49 18.3-7.73 19.32-13.29.87-4.72 1.3-16 1.64-21.68.17-2.9 1.29-6.35-3.16-5.43-.11-3.48-1.43-5.07-1.55-6.2-.52-4.8-.07-16.13-3.48-19.78s-20.3-8.83-25.94-11.22c-.44-.18-1.11.18-1.55 0l.02.02Z"/><path class="st1" d="M203.91 247.29c10.87 1.35 10.22 5.82 17.84 10.82 20.57 13.49 44.34 23.78 65.9 36.34 4.09 2.38 18.04 8.02 18.57 12.48-1.53 9.74 3.92 22.39-5.55 28.72-24.31 11.84-47.57 26.2-71.7 38.29-5.69 2.85-16.23 9.05-21.97 9.78 2.41-4.86 6.76-3.8 8.82-5.11 1.32-.84 2.75-3.58 6.17-5.43 7.35-3.97 15.33-8.35 23.58-9.75-2.13-10.75 9.92-12.14 17.35-16.02 2.4-2.78-.46-14.75-.13-18.66.73-8.69 2.21-19.73 1.23-29.12-.15-1.39-4.11-15.76-4.7-16.36-1.1-1.1-10.85-2.17-14.04-3.78-3.77-1.9-8.26-7.34-13.01-10.24-2.73-1.67-8.3-2.45-9.85-4.09-2.07-2.19-.85-5.71-1.82-6.78-.3-.32-5.58-3.85-6.8-4.68-3.2-2.17-8-2.4-9.9-6.43ZM69.2 282.94c4.46-6.45 14.45-7.42 20.68-12.25l.32-26.59c-7.09-2.29-19.38-5.68-21.85-13.78-1.64-5.38-1.47-21.1 2.31-25.37 3.78-4.26 24.06-10.78 30.23-10.44 3.58.2 27.13 11.24 28.77 13.59 1.82 2.61 2.82 8.67 3.1 11.99 1.85 22.11-1.23 47.09-.4 69.5-2.09 2.55-4.24 6.84-6.82 8.67-9.23 6.54-28.4 13.55-39.29 18.79.14-.99-.21-2.21 0-3.1 2.13-9.11 11.61-7.66 17.44-9.32 1.08-.31 2.84-4.03 5.53-5.67 5.33-3.23 12.67-4.16 15.72-5.97 8.58-5.08 3.71-44.4 3.14-54.26-.35-5.97.66-29.83-3.31-33.12-.69-.57-6.11-.21-8.78-1.25-1.5-.59-1.73-2.8-2.36-3.06-7.66-3.08-15.17-4.8-23.58-3.75-2.74.35-2.14 2.5-3.47 3.07-2.2.95-11.42 4.27-12.29 5.2-2.31 2.46-2.75 21.29-1.67 24.88 2.22 7.37 15.39 4.63 20.31 6.03 7.91 2.25 2.62 27.27 4.26 34.4-.51 1.88-7.5 1.68-9.69 2.66-4.53 2.04-10.44 7.01-16.73 9.14-.46.16-1.08-.15-1.55 0l-.02.02Z"/><path class="st3" d="M330.89 213.18c-5.84-2.42-29.34-13.05-31.37-17.42-.86-7.28-4.8-38.62 4.33-40.02 3.96-.61 22.68 11.21 28.03 13.83 5.68 2.78 11.81 4.54 17.42 7.37 14.98 7.57 29.48 16.95 44.63 24.3 2.26 3.93 3.24 8.16 3.61 12.68 1.43 16.94 1.88 56.28-.47 72.53-.63 4.38-2.08 10.12-5.89 12.71-20.13 7.88-29.85 23.32-53.62 13.57-16.86-6.92-19.08-15.46-20.61-32.85.94.2 2.15-.19 3.09 0 .22.72.81 1.4 1.55 1.55.48.1 1.04-.04 1.55 0v3.1c0 5.58-.3 11.25.25 16.81 12.74 5.12 23.74 16.47 38.01 9.85 4.25-1.97 11.74-4.91 14.76-6.52 1.99-1.05 1.97-4.06 4.3-5.37 2.01-1.13 5.38-.34 6.98-2.35 3.72-4.7.89-17.55 2.53-22.32.8-2.32 4.11-1.29 4.55-4.77 1.48-12.04 1.23-46.64-.26-58.84-.22-1.87-2.3-8.93-3.35-9.84-2.29-1.97-18.76-7.47-23.13-9.84-11.02-5.96-20.27-10.97-31.72-16.62-8.05-3.98-21.3-13.03-29.53-15.4-1.68-.49-3.33-.48-5.05-.36v34.88c4.12 1.39 8.88 8.1 10.87 9.25 4.3 2.5 16.46 3.52 18.56 10.13v-.02Z"/><path class="st4" d="M361.85 244.19c.12 1.13 1.44 2.73 1.55 6.2.18 5.91-1 9.02-1.55 13.95-7.16-3.72-24.4-8.55-12.38-17.06.5-.09 1.06.11 1.55 0 2.7-.61 5.53-2.47 7.74-3.1.83-.23 2.12.16 3.09 0ZM44.42 146.52l-7.77-.9.03-17.7 15.29 6.38c1.61 2.78-2.66 6.87-4.45 9.12-1.13 1.43-2.6 2.44-3.09 3.1Z"/><path class="st1" d="M183.78 250.39c-.07 5.87-10.63 5.98-14.3 7.85-1.31.66-1.39 2.51-2.29 2.99-6.17 3.31-10.29 3.77-14.32 10.44 1.48 25.51-2.21 53.58-.12 78.77 1.4 16.93 14.62 13.79 26.74 19.73 5.83 2.86 8.84 8.56 15.11 8.9l-6.19 1.53c-6.86-2.9-34.05-16.25-36.36-21.73l-.11-88.42c2.55-8.36 23.76-17.35 31.82-20.07Z"/><path class="st5" d="M321.6 109.31c-5.47-8.07 7.15-9.76 12.38-12.39l-1.56 17.04c-2.52.65-.72-2.55-2.56-3.13-1.23-.39-2.75.27-3.61.03-1.31-.35-4.14-1.53-4.65-1.55Z"/><path class="st4" d="M69.2 282.94c.47-.15 1.09.16 1.55 0l-6.2 7.03c.56 10.73 11.9 16.05 12.4 25.54l9.28-1.56c-.21.89.14 2.11 0 3.1-3.69 1.78-7.09 4.42-10.84 6.2l2.31-4.66-5.42.02c4.71-12.04-8.11-13.58-9.08-16.53-.43-1.32.95-3.48.41-5.23-.99-3.23-5.55-5.3-2.17-10.81 1-.12 5.52-2.39 7.74-3.1Z"/><path class="st3" d="M332.43 213.18c5.64 2.39 22.4 7.44 25.94 11.22s2.95 14.97 3.48 19.78c-.98.16-2.27-.23-3.09 0v-1.55c-.71-3.53 1.15-13.03-.25-15.26s-17.55-7.57-20.98-9.22c-2.28-1.11-4.06-2.61-5.09-4.97Z"/><path class="st1" d="M202.36 247.29c-2.84-.24-8.23-.43-10.84 0 2.7-3.97 8.14-3.97 10.84 0Z"/><path class="st4" d="M358.76 242.64v1.55c-2.21.63-5.04 2.49-7.74 3.1 1.34-3.1 4.61-4.25 7.74-4.65Z"/><path class="st3" d="m185.33 250.39 4.65-3.1c-.27.07-.93 2.01-4.65 3.1ZM363.4 250.39c4.45-.92 3.33 2.53 3.16 5.43-.34 5.67-.78 16.95-1.64 21.68-1.02 5.56-13.92 12.8-19.32 13.29-10.13.91-13.49-4.84-22.45-6.27v-3.1c8.96.74 12.68 5.33 19.82 5.89 4.59.36 16.18-4.7 18.1-9.02s.3-9.46.8-13.94c.56-4.94 1.73-8.05 1.55-13.95h-.02Z"/><path d="M321.6 281.4c-.73-.15-1.32-.83-1.55-1.55.74.15 1.34.82 1.55 1.55Z" style="fill:#afa91c"/><path class="st1" d="m214.75 337.21-6.84 3.1-19.55-5.69c1.28-13.55-4.6-27.44.28-40.61 6.23-.23 12.43-.28 18.68-.68 2.65-.17 4.95-3.35 4.32 2.02-8.65-.45-14.11 3.36-21.68 1.55v34.88c3 4.04 8.35 1.51 12.8 2.69 5.28 1.39 3.23 5.56 11.98 2.75ZM227.14 303.1c5.7 2.26 8.22 3.54 13.03 6.2 2.57 1.42 3.15.65 4 4.65-6.08-2.94-12.84-5.05-17.03-10.85ZM213.2 295.35c4.82.61 11.5 2.59 12.38 7.75-3.86-1.68-9.56-4.6-12.38-7.75ZM230.23 329.46v3.09c-2.02.21-4.17-.23-6.2 0 1.38-2.75 4.21-2.26 6.2-3.1ZM245.72 321.71l3.09-6.2c.74.51 2.12.16 1.54 2.31-1.14 1.83-3.05 2.66-4.64 3.9Z"/><path class="st3" d="m239.52 324.81 4.65-3.1c-1.55 1-2.26 1.73-4.65 3.1Z"/><path class="st1" d="M222.49 332.56c-.3.51.21 2.17-.03 3.12-.9.23-1.41-1.58-1.52-1.57l1.55-1.55Z"/><path class="st3" d="m236.43 326.36 1.55-1.55c-.28.15-.67 1.12-1.55 1.55ZM247.27 315.5l-1.55-1.55c.86.39 1.24 1.38 1.55 1.55ZM231.78 329.46l3.09-3.1c-.2.09-.95 2.1-3.09 3.1Z"/><path class="st1" d="M70.75 282.94c6.29-2.13 12.2-7.1 16.73-9.14 2.19-.99 9.17-.78 9.69-2.66-1.64-7.13 3.64-32.15-4.26-34.4-4.92-1.39-18.08 1.34-20.31-6.03-1.09-3.59-.64-22.42 1.67-24.88.87-.93 10.1-4.26 12.29-5.2 1.33-.57.73-2.72 3.47-3.07 8.41-1.06 15.93.67 23.58 3.75.63.26.87 2.47 2.36 3.06 2.67 1.05 8.1.68 8.78 1.25 3.97 3.29 2.96 27.15 3.31 33.12.58 9.85 5.45 49.17-3.14 54.26-3.05 1.81-10.39 2.75-15.72 5.97-2.7 1.63-4.45 5.36-5.53 5.67-5.84 1.65-15.31.2-17.44 9.32l-9.28 1.56c-.5-9.49-11.84-14.82-12.4-25.54l6.2-7.03Z"/><path class="st2" d="m630.25 28.3-32.81 129.18h-30.99l-20.6-82.87c-.52-2.16-.95-4.46-1.3-6.89s-.58-4.97-.69-7.61h-.35c-.23 2.94-.53 5.62-.91 8.02-.38 2.4-.82 4.56-1.34 6.49l-21.12 82.87h-32.29L455.21 28.31h30.56l17.49 86.03c.4 1.86.74 4.01 1 6.44s.48 5.21.65 8.33h.52c.12-2.34.39-4.77.82-7.3.43-2.52 1-5.13 1.69-7.84l22.51-85.67h29.95l20.34 86.75c.35 1.56.69 3.51 1.04 5.85.35 2.34.66 5.02.95 8.02h.35c.12-2.4.33-4.79.65-7.16s.71-4.79 1.17-7.25l17.14-86.21h28.22ZM720.45 157.47H646V28.3h71.59v23.69h-43.63v28.74h40.6v23.6h-40.6v29.55h46.49v23.6ZM740.36 157.47V28.3h45.19c13.85 0 24.5 2.73 31.94 8.2 7.44 5.47 11.17 13.18 11.17 23.15 0 6.91-1.99 12.96-5.97 18.15-3.98 5.19-9.06 8.81-15.24 10.85v.36c7.96 1.08 14.31 4.37 19.04 9.86 4.73 5.49 7.1 12.18 7.1 20.04 0 11.83-4.07 21.21-12.21 28.15-8.14 6.94-19.25 10.4-33.33 10.4h-47.7Zm27.96-107.73v31.53h12.29c5.77 0 10.31-1.44 13.63-4.32 3.32-2.88 4.98-6.85 4.98-11.89s-1.7-8.93-5.11-11.49c-3.41-2.55-8.51-3.83-15.32-3.83h-10.47Zm0 53.14v33.15h15.15c6.46 0 11.53-1.56 15.19-4.68 3.66-3.12 5.5-7.39 5.5-12.79 0-4.86-1.8-8.69-5.41-11.49-3.61-2.79-8.64-4.19-15.11-4.19h-15.32ZM848.82 148.91l10.47-18.92c4.62 2.76 8.68 4.77 12.21 6.04 3.52 1.26 7.91 1.89 13.16 1.89 6.98 0 12.12-1.71 15.41-5.13 3.29-3.42 4.93-7.39 4.93-11.89 0-6.25-2.41-10.93-7.23-14.05-4.82-3.12-11.44-4.68-19.87-4.68h-10.13v-21.8h9.26c8.08 0 14.14-1.4 18.18-4.19 4.04-2.79 6.06-7.46 6.06-14.01 0-4.74-1.27-8.32-3.81-10.72-2.54-2.4-6.23-3.6-11.08-3.6-3.46 0-7.3.65-11.51 1.94s-8.69 3.35-13.42 6.17l-9.87-18.83c6.41-3.9 12.67-6.71 18.78-8.42 6.12-1.71 12.9-2.57 20.34-2.57 11.43 0 20.69 2.97 27.79 8.92s10.65 13.66 10.65 23.15c0 7.93-1.76 14.53-5.28 19.82-3.52 5.29-8.83 9.25-15.93 11.89v.45c7.67 1.5 13.75 5 18.22 10.49 4.47 5.49 6.71 12.06 6.71 19.68 0 11.41-4.07 20.79-12.21 28.15-8.14 7.36-19.16 11.03-33.07 11.03-7.27 0-13.98-.86-20.13-2.57-6.15-1.71-12.37-4.46-18.66-8.24ZM1020.69 120.78c1.63 18.93 12.77 27.95 30.97 27.95s29.45-8.76 29.45-25.81c0-12.35-5.28-20.25-26.66-29-22.08-9.01-29.84-17.54-29.84-32.23 0-18.06 12.25-34.84 38.77-34.84s37.56 16.8 37.5 34.9h-11.73c-1.69-15.13-8.82-24.26-26.98-24.26s-25.33 11.15-25.33 22.76c0 9.58 3.9 15.53 23.44 23.36 25.69 10.25 33.3 21.63 33.3 37.5 0 19.98-12.45 38.2-43.38 38.2-27.6 0-40.96-16.36-41.52-38.54h12.03ZM1192.24 100.59c0 25.52-13.75 58.73-46.64 58.73-20.31 0-32.46-13.66-32.46-37.06 0-25.95 15.03-59.46 46.5-59.46 19.96 0 32.6 14.12 32.6 37.79Zm-67.58 21.54c0 16.45 7.79 26.84 22.26 26.84 23.16 0 33.68-27.32 33.68-48.24 0-17.04-7.14-27.59-22.17-27.59-22.33 0-33.77 27.29-33.77 48.99ZM1203.59 157.47l27.6-135.72h11.2l-27.6 135.72h-11.2ZM1313.9 132.61c-1.77 8.33-3.4 17.43-4.64 24.87h-10.97c.18-3.05 1.66-11.73 2.82-17.19-5.75 10.8-16.1 19.04-30.66 19.04-16.16 0-27.07-9.11-21.77-34.66l12.52-60.02h11.03l-12.11 59.12c-2.69 12.82-2.56 25.17 13.66 25.17 15.11 0 27.94-11.68 33.65-39.84l9.16-44.44h11.2l-13.89 67.96ZM1343.64 64.64h15.38l5.62-27.47h11.17l-5.59 27.47h19.82l-2.2 10.13h-19.82l-12.05 59.75c-1.96 9.53-1.57 13.72 6.41 13.72 2.54 0 6.45-.18 9.26-.86l-2.26 9.8c-3.74 1.38-7.56 1.54-11.09 1.54-12.32 0-17.36-5.54-14.29-20.66l12.82-63.28h-15.38l2.2-10.13ZM1408.11 64.64h11.2l-18.91 92.83h-11.2l18.91-92.83Zm8.69-42.89h11.2l-3.77 18.93h-11.2l3.77-18.93ZM1509.75 100.59c0 25.52-13.75 58.73-46.64 58.73-20.31 0-32.46-13.66-32.46-37.06 0-25.95 15.03-59.46 46.5-59.46 19.96 0 32.6 14.12 32.6 37.79Zm-67.58 21.54c0 16.45 7.79 26.84 22.26 26.84 23.16 0 33.68-27.32 33.68-48.24 0-17.04-7.14-27.59-22.17-27.59-22.33 0-33.77 27.29-33.77 48.99ZM1535.19 88.22c1.6-8.12 3.07-15.92 4.46-23.58h10.97c-.33 3.05-2.4 14.87-3.08 17.42 5.42-9.5 14.29-19.26 31.14-19.26s27.65 9.92 22.25 35.88l-11.85 58.8h-11.18l11.7-58.08c3.17-15.38-.15-25.83-15.08-25.83-18.53 0-28.87 18.44-32.86 38.1l-9.36 45.81h-11.2l14.09-69.25ZM1624.44 129.91c1.13 10.26 7.01 19.37 22.9 19.37 13.03 0 20.24-6.85 20.24-16.75s-6.25-14.19-19.5-19.4c-18.56-7.14-24.25-13.98-24.25-24.43 0-13.56 9.9-25.91 30.58-25.91 22.49 0 30.23 13.62 29.97 26.36h-11.41c-.77-7.12-3.85-16.5-19.95-16.5-10.65 0-17.69 5.81-17.69 14.87 0 7.12 5.23 10.64 18.46 15.85 17.96 7.01 25.71 14.5 25.71 27.47 0 17.42-12.74 28.47-34.1 28.47s-32.12-12.8-32.37-29.41h11.41ZM510.07 227.26c0-9.3.1-18.76.31-24.03h-.27c-2.14 8.12-10.25 29.62-16 45.38h-5.96c-4.34-12.82-12.73-36.93-14.98-45.48h-.22c.39 5.79.56 16.91.56 25.5v19.98h-6.26v-50.1h9.91c5.69 15.55 12.64 35.61 14.36 41.98h.12c1.18-4.82 9.4-26.84 15.28-41.98h9.64v50.1h-6.49v-21.35ZM554.59 240.65c0 3.32.29 6.91.5 7.96h-6.03c-.29-.81-.5-2.55-.6-4.78-1.27 2.43-4.19 5.64-11.27 5.64-8.61 0-12.28-5.6-12.28-11.16 0-8.15 6.4-11.88 17.25-11.88h6.23v-3.11c0-3.22-1.03-7.15-7.86-7.15-6.1 0-7.13 3.03-7.79 5.88h-6.1c.48-5.03 3.59-10.85 14.09-10.82 8.92.03 13.86 3.66 13.86 11.96v17.45Zm-6.16-9.84h-5.91c-7.28 0-11.18 2.01-11.18 7.16 0 3.8 2.6 6.56 7.11 6.56 8.79 0 9.98-5.92 9.98-12.55v-1.17ZM560.29 212.1h6.31v-10.77h6.3v10.77h8.06v5.14h-8.06v21.39c0 3.55.86 5.37 4.17 5.37.88 0 2.18-.05 3.18-.3v4.75c-1.56.58-3.72.67-5.46.67-5.68 0-8.2-2.94-8.2-9.01v-22.87h-6.31v-5.14ZM591.21 231.5c.05 7.43 3.78 12.7 9.98 12.7 5.77 0 7.65-2.97 8.81-5.65h6.35c-1.44 4.68-5.35 10.92-15.36 10.92-11.48 0-16.16-9.33-16.16-18.73 0-10.86 5.47-19.51 16.57-19.51 11.78 0 15.64 9.45 15.64 17.24 0 1.11 0 2.04-.1 3.03h-25.73Zm19.44-4.44c-.07-6.01-3.09-10.83-9.33-10.83s-9.25 4.47-9.88 10.83h19.22ZM632.26 212.1v37.71c0 10.1-2.32 13.88-10.24 13.88-.45 0-1.86-.07-2.48-.14v-5.35c.47.05.99.05 1.38.05 4.4 0 5.03-2.22 5.03-7.34v-38.8h6.3Zm-6.3-8.47v-7.88h6.3v7.88h-6.3ZM669.28 233.59l-5.39 15.03h-6.61l17.84-50.1h8.18l18.61 50.1h-7.08l-5.56-15.03h-19.99Zm18.29-5.7c-4.78-13.17-7.4-20.16-8.48-23.98h-.07c-1.22 4.25-4.16 12.72-8.01 23.98h16.56ZM708.83 222.02c0-5.1-.05-7.98-.07-9.92h6.18c.1 1.02.19 3.89.19 7.45 1.91-4.94 6.26-8.13 12.3-8.32v6.29c-7.49.22-12.3 4.13-12.3 13.36v17.73h-6.3v-26.59ZM740.4 195.75v21.74c1.86-3.21 5.19-6.25 11.4-6.25 5.85 0 12.3 3.2 12.3 14.07v23.31h-6.28v-22.25c0-6.21-2.63-9.66-7.94-9.66-6.57 0-9.47 4.34-9.47 11.95v19.96h-6.3v-52.86h6.3ZM796.12 238.17c1.05 3.99 4 6.34 8.95 6.34 5.36 0 7.47-2.31 7.47-5.63s-1.68-5-8.65-6.69c-10.44-2.54-12.61-5.73-12.61-10.69s3.8-10.27 13.18-10.27 13.27 5.45 13.75 10.54h-6.1c-.52-2.36-2.31-5.65-7.92-5.65-5.12 0-6.64 2.46-6.64 4.85 0 2.73 1.5 4.08 8.19 5.68 11.07 2.63 13.28 6.32 13.28 11.75 0 6.4-5.07 11.07-14.16 11.07s-14.09-4.78-15.02-11.31h6.27ZM826.72 248.61v-10.64h6.61v10.64h-6.61ZM848.73 244.1v18.86h-6.28V221c0-2.98 0-6.07-.07-8.91h6.13c.14 1.22.22 3.43.22 5.74 1.98-3.68 5.68-6.6 11.93-6.6 8.45 0 14.58 7.08 14.58 18.18 0 13.04-7.04 20.06-15.88 20.06-5.9 0-8.99-2.48-10.63-5.38Zm20.02-14.43c0-7.74-3.52-13.04-9.76-13.04-7.57 0-10.55 4.78-10.55 13.66s2.45 13.87 10.08 13.87c6.67 0 10.24-5.5 10.24-14.49ZM881.73 248.61v-10.64h6.61v10.64h-6.61ZM474.52 279.81v80.29h-10.47v-80.29h10.47ZM492.17 316.32c0-5.08 0-10.21-.11-14.75h9.66c.27 1.72.42 7.88.39 9.61 2.3-5.03 6.99-11 18.12-11s19.23 6.71 19.23 22.27v37.64h-9.94v-36.34c0-8.84-3.4-14.8-12.19-14.8-10.86 0-15.23 8.4-15.23 20.16v30.98h-9.94v-43.77ZM558.13 360.1v-50.27h-9.28v-8.24h9.28v-7.01c0-10.76 4.05-20.35 16.77-20.35 2.1 0 4.96.31 6.37.77v8.56c-1.38-.34-3.5-.53-5.04-.53-5.93 0-8.15 3.62-8.15 12.19v6.37h11.53v8.24h-11.53v50.27h-9.94ZM637.52 330.72c0 16.86-9.51 30.76-27.1 30.76-16.49 0-26.47-12.97-26.47-30.56s9.77-30.73 27.12-30.73c15.98 0 26.46 12.17 26.46 30.53Zm-43.33.12c0 12.83 6.3 22.2 16.65 22.2s16.45-8.88 16.45-22.15-5.89-22.24-16.68-22.24-16.42 8.84-16.42 22.2ZM650.48 317.48c0-8.18-.07-12.79-.11-15.9h9.74c.15 1.64.31 6.23.31 11.94 3.01-7.92 9.87-13.03 19.39-13.33v10.07c-11.81.36-19.39 6.62-19.39 21.42v28.41h-9.94v-42.62ZM689.3 316.67c0-5.04 0-10.35-.11-15.09h9.58c.15 1.76.42 6.07.39 9 2.63-5.24 7.65-10.39 16.75-10.39 8.15 0 13.75 4.2 15.94 10.48 3.08-5.55 8.51-10.48 18.34-10.48s18.15 5.61 18.15 21.45v38.46h-9.78v-37.23c0-6.79-2.4-13.95-11.39-13.95s-13.43 7.2-13.43 17.58v33.6H724v-36.91c0-7.53-2.1-14.23-11.13-14.23s-13.69 7.6-13.69 18.75v32.39h-9.86v-43.43ZM827.54 347.34c0 5.32.45 11.08.79 12.76h-9.51c-.45-1.3-.79-4.09-.94-7.66-2.01 3.9-6.6 9.04-17.77 9.04-13.57 0-19.37-8.98-19.37-17.88 0-13.06 10.09-19.04 27.2-19.04h9.82v-4.99c0-5.16-1.62-11.46-12.39-11.46-9.62 0-11.24 4.85-12.29 9.42h-9.62c.76-8.06 5.67-17.38 22.22-17.34 14.07.04 21.86 5.87 21.86 19.17v27.97Zm-9.71-15.77h-9.32c-11.48 0-17.62 3.22-17.62 11.47 0 6.08 4.1 10.52 11.21 10.52 13.86 0 15.73-9.49 15.73-20.12v-1.87ZM890.03 342.19c-2.44 10.07-9.15 19.29-23.79 19.29-15.84 0-25.66-11.59-25.66-30.33 0-16.55 9.21-30.96 26.38-30.96s22.33 12.02 23.07 19.57h-9.85c-1.42-5.96-5.09-11.12-13.42-11.12-10.18 0-15.95 8.87-15.95 22.15s5.59 22.28 15.58 22.28c7.2 0 11.39-3.9 13.74-10.88h9.89ZM902.94 275.37h9.94v12.62h-9.94v-12.62Zm0 26.21h9.94v58.52h-9.94v-58.52ZM939.78 301.58v60.43c0 16.19-3.66 22.24-16.14 22.24-.71 0-2.94-.12-3.9-.23v-8.57c.75.07 1.57.07 2.17.07 6.93 0 7.94-3.55 7.94-11.76v-62.19h9.94ZM929.84 288v-12.62h9.94V288h-9.94ZM961.01 343.35c1.65 6.4 6.31 10.16 14.11 10.16 8.46 0 11.78-3.71 11.78-9.03s-2.64-8.01-13.63-10.72c-16.45-4.07-19.89-9.18-19.89-17.12s5.98-16.45 20.78-16.45 20.93 8.74 21.68 16.89h-9.62c-.82-3.78-3.64-9.05-12.49-9.05-8.07 0-10.46 3.94-10.46 7.78 0 4.37 2.36 6.53 12.92 9.1 17.46 4.21 20.95 10.13 20.95 18.83 0 10.26-8 17.74-22.33 17.74s-22.22-7.66-23.69-18.13h9.89ZM1019.02 329.51c4.86-5.78 17.5-19.3 25.3-27.94h11.85l-21.67 22.8 24.15 35.72h-11.62l-19.35-29.25-8.66 8.5v20.75h-9.94v-84.72h9.94v54.14ZM1110.65 347.34c0 5.32.45 11.08.79 12.76h-9.51c-.45-1.3-.79-4.09-.94-7.66-2.01 3.9-6.6 9.04-17.77 9.04-13.57 0-19.37-8.98-19.37-17.88 0-13.06 10.09-19.04 27.2-19.04h9.82v-4.99c0-5.16-1.62-11.46-12.39-11.46-9.62 0-11.24 4.85-12.29 9.42h-9.62c.76-8.06 5.67-17.38 22.22-17.34 14.07.04 21.86 5.87 21.86 19.17v27.97Zm-9.71-15.77h-9.32c-11.48 0-17.62 3.22-17.62 11.47 0 6.08 4.1 10.52 11.21 10.52 13.86 0 15.73-9.49 15.73-20.12v-1.87ZM1149.15 301.58h9.96v-17.27h9.94v17.27h12.71v8.24h-12.71v34.28c0 5.69 1.36 8.6 6.57 8.6 1.38 0 3.44-.07 5.02-.49v7.61c-2.45.93-5.86 1.08-8.61 1.08-8.95 0-12.92-4.71-12.92-14.44v-36.65h-9.96v-8.24ZM1197.91 332.68c.07 11.9 5.97 20.36 15.74 20.36 9.1 0 12.05-4.77 13.9-9.05h10.01c-2.26 7.49-8.44 17.5-24.21 17.5-18.1 0-25.48-14.95-25.48-30.02 0-17.4 8.62-31.27 26.12-31.27 18.57 0 24.65 15.14 24.65 27.63 0 1.78 0 3.27-.15 4.85h-40.57Zm30.64-7.13c-.11-9.63-4.88-17.36-14.72-17.36s-14.58 7.16-15.58 17.36h30.3ZM1261.6 275.37v34.84c2.94-5.14 8.18-10.02 17.97-10.02 9.23 0 19.39 5.14 19.39 22.55v37.35h-9.9v-35.67c0-9.95-4.14-15.48-12.52-15.48-10.35 0-14.94 6.96-14.94 19.15v31.99h-9.94v-84.72h9.94ZM1315.95 316.32c0-5.08 0-10.21-.11-14.75h9.66c.27 1.72.42 7.88.39 9.61 2.3-5.03 6.99-11 18.12-11s19.23 6.71 19.23 22.27v37.64h-9.94v-36.34c0-8.84-3.4-14.8-12.19-14.8-10.86 0-15.23 8.4-15.23 20.16v30.98h-9.94v-43.77ZM1429.64 330.72c0 16.86-9.5 30.76-27.1 30.76-16.49 0-26.47-12.97-26.47-30.56s9.77-30.73 27.12-30.73c15.98 0 26.46 12.17 26.46 30.53Zm-43.34.12c0 12.83 6.3 22.2 16.65 22.2s16.45-8.88 16.45-22.15-5.89-22.24-16.68-22.24-16.42 8.84-16.42 22.2ZM1442.6 360.1v-84.72h9.94v84.72h-9.94ZM1518.98 330.72c0 16.86-9.5 30.76-27.1 30.76-16.49 0-26.47-12.97-26.47-30.56s9.77-30.73 27.12-30.73c15.98 0 26.46 12.17 26.46 30.53Zm-43.34.12c0 12.83 6.3 22.2 16.65 22.2s16.45-8.88 16.45-22.15-5.89-22.24-16.68-22.24-16.42 8.84-16.42 22.2ZM1580.04 354.83c0 18.75-7.62 29.43-26.41 29.43-17.45 0-22.82-9.94-23.86-17.89h10.13c1.68 6.41 6.75 9.81 14.16 9.81 13.07 0 16.31-8.43 16.31-21.9v-4.73c-3.07 6.56-8.35 10.27-17.99 10.27-14.17 0-23.82-11.74-23.82-28.89 0-19.1 10.94-30.73 24.86-30.73 10.98 0 15.65 5.25 16.96 9.13.11-2.65.35-6.53.46-7.75h9.4c-.04 3.39-.19 11.28-.19 16.9v36.35Zm-41.16-24.35c0 12.34 6.31 20.72 15.72 20.72 12.42 0 16.05-8.48 16.05-21.48s-3.42-20.96-15.71-20.96c-10.64 0-16.06 9.05-16.06 21.72ZM1596.98 275.37h9.94v12.62h-9.94v-12.62Zm0 26.21h9.94v58.52h-9.94v-58.52ZM1633.82 301.58v60.43c0 16.19-3.66 22.24-16.14 22.24-.71 0-2.94-.12-3.9-.23v-8.57c.75.07 1.57.07 2.17.07 6.93 0 7.94-3.55 7.94-11.76v-62.19h9.94Zm-9.94-13.58v-12.62h9.94V288h-9.94ZM1692.98 347.34c0 5.32.45 11.08.79 12.76h-9.51c-.45-1.3-.79-4.09-.94-7.66-2.01 3.9-6.6 9.04-17.77 9.04-13.57 0-19.37-8.98-19.37-17.88 0-13.06 10.09-19.04 27.2-19.04h9.82v-4.99c0-5.16-1.62-11.46-12.39-11.46-9.62 0-11.24 4.85-12.29 9.42h-9.62c.76-8.06 5.67-17.38 22.22-17.34 14.07.04 21.86 5.87 21.86 19.17v27.97Zm-9.7-15.77h-9.32c-11.48 0-17.62 3.22-17.62 11.47 0 6.08 4.1 10.52 11.21 10.52 13.86 0 15.73-9.49 15.73-20.12v-1.87Z"/></svg>
